<?xml version="1.0" encoding="utf-8"?>
<!-- Generator: Adobe Illustrator 13.0.1, SVG Export Plug-In  -->
<!DOCTYPE svg [
	<!ENTITY ns_flows "http://ns.adobe.com/Flows/1.0/">
]>
<svg version="1.2" baseProfile="tiny"
	 xmlns="http://www.w3.org/2000/svg" xmlns:xlink="http://www.w3.org/1999/xlink" xmlns:a="http://ns.adobe.com/AdobeSVGViewerExtensions/3.0/"
	 x="0px" y="0px" width="480px" height="640px" viewBox="-78.593 -177.101 480 640" xml:space="preserve">
<defs>
</defs>
<path fill="#D0D0D0" d="M9.385,91.251c11.108-9.278,27.632-7.797,36.913,3.31c9.278,11.108,7.797,27.629-3.311,36.912
	c-5.066,4.232-11.261,6.199-17.379,6.061c22.78,43.63,101.325,129.332,235.165,149.469c0,0-172.054-5.728-256.572-161.293
	c-0.07-0.128-0.112-0.254-0.157-0.382C-2.869,114.392-0.81,99.773,9.385,91.251"/>
<path fill="#D0D0D0" d="M138.627,229.743c0,0-40.386-54.795-4.447-111.005c28.675-44.849,37.007-62.854,38.431-104.27
	c9.519,45.619,20.518,57.684,34.271,75.245c13.752,17.558,15.338,68.831-9.889,95.062c46.33-13.7,62.144,21.233,115.171-10.972
	C281.486,282.102,190.974,274.568,138.627,229.743"/>
<path fill="#D0D0D0" d="M142.133,236.683c0,0-61.41-47.404-31.232-116.458C134.977,65.128,145.092,46.475,139.365,0
	c18.684,49.243,29.207,58.915,47.034,76.743c39.056,39.054,34.112,74.32,10.595,108.033c49.286-23.435,75.246,6.775,128.736-38.489
	C310.628,272.551,208.474,277.512,142.133,236.683"/>
<path fill="#D0D0D0" d="M163.5,250.393c0,0-124.443-52.62-94.403-249.88c8.794,21.657,60.188,40.53,106.135,68
	c44.419,26.555,28.18,75.381,10.144,103.266c-18.036,27.883-3.999,56.459-3.999,56.459s1.498-39.949,36.161-41.009
	c34.66-1.063,90.478,2.334,103.278-31.6C314.178,206.024,251.162,271.616,163.5,250.393"/>
</svg>
